<?xml version="1.0" encoding="UTF-8"?>
<svg width="68px" height="102px" viewBox="0 0 68 102" version="1.1" xmlns="http://www.w3.org/2000/svg" xmlns:xlink="http://www.w3.org/1999/xlink">
    <!-- Generator: Sketch 41.2 (35397) - http://www.bohemiancoding.com/sketch -->
    <title>empty_article</title>
    <desc>Created with Sketch.</desc>
    <defs>
        <polygon id="path-1" points="33.50005 55 67 55 67 7.10542736e-15 0.0001 0 0.0001 55"></polygon>
    </defs>
    <g id="Page-1" stroke="none" stroke-width="1" fill="none" fill-rule="evenodd">
        <g id="粉丝列表无数据" transform="translate(-854.000000, -615.000000)">
            <g id="Group-10" transform="translate(854.000000, 615.000000)">
                <g id="empty_article">
                    <g id="Group-3" transform="translate(0.000000, 46.091000)">
                        <mask id="mask-2" fill="white">
                            <use xlink:href="#path-1"></use>
                        </mask>
                        <g id="Clip-2"></g>
                        <path d="M58.0001,47 L41.0001,53 C40.4481,53 40.0001,52.553 40.0001,52 L40.0001,24 C40.0001,23.447 40.4481,23 41.0001,23 L58.0001,19 L58.0001,47 Z M38.0001,52 C38.0001,52.553 37.5521,53 37.0001,53 L7.0001,48 L7.0001,18 L37.0001,23 C37.5521,23 38.0001,23.447 38.0001,24 L38.0001,52 Z M2.6181,8 L33.3821,13 L37.3821,21 L6.6181,16 L2.6181,8 Z M67.0001,4 C67.0001,3.447 66.5521,3 66.0001,3 L56.0001,0 C55.4481,0 55.0001,0.447 55.0001,1 C55.0001,1.553 55.4481,2 56.0001,2 L64.3821,5 L58.3821,17 L39.6181,21 L34.8951,11.553 L34.8851,11.558 C34.7211,11.23 34.3911,11 34.0001,11 L1.0001,6 C0.4481,6 0.0001,6.447 0.0001,7 C0.0001,7.161 0.0471,7.307 0.1151,7.443 L0.1051,7.447 L5.0001,17.236 L5.0001,49 C5.0001,49.553 5.4481,50 6.0001,50 C6.0001,50 36.7651,55 36.9641,55 L39.0221,55 L40.8801,55 C41.0111,55 59.0001,49 59.0001,49 C59.5521,49 60.0001,48.553 60.0001,48 L60.0001,18.236 L66.8951,4.447 L66.8851,4.442 C66.9531,4.308 67.0001,4.161 67.0001,4 L67.0001,4 Z" id="Fill-1" fill="#D6DADD" mask="url(#mask-2)"></path>
                    </g>
                    <path d="M11.2446,4.7603 C10.8346,4.3503 10.1706,4.3503 9.7606,4.7603 C9.3506,5.1703 9.3506,5.8343 9.7606,6.2443 L12.7286,9.2113 C13.1386,9.6213 13.8026,9.6213 14.2126,9.2113 C14.6216,8.8023 14.6216,8.1373 14.2126,7.7283 L11.2446,4.7603 Z M17.9106,6.5403 C18.5126,6.5403 19.0006,6.0523 19.0006,5.4503 L19.0006,1.0903 C19.0006,0.4883 18.5126,0.0003 17.9106,0.0003 C17.3086,0.0003 16.8206,0.4883 16.8206,1.0903 L16.8206,5.4503 C16.8206,6.0523 17.3086,6.5413 17.9106,6.5403 L17.9106,6.5403 Z M10.4506,11.8203 L6.0906,11.8193 C5.4886,11.8203 5.0006,12.3083 4.9996,12.9103 C5.0006,13.5123 5.4886,14.0003 6.0906,14.0003 L10.4516,14.0003 C11.0526,14.0003 11.5406,13.5113 11.5406,12.9103 C11.5416,12.3083 11.0526,11.8203 10.4506,11.8203 L10.4506,11.8203 Z M29.9696,19.8153 C29.4166,19.8153 28.9696,20.2623 28.9696,20.8153 L28.9696,23.8153 C28.9696,24.3673 29.4166,24.8153 29.9696,24.8153 C30.5216,24.8153 30.9696,24.3673 30.9696,23.8153 L30.9696,20.8153 C30.9696,20.2623 30.5216,19.8153 29.9696,19.8153 L29.9696,19.8153 Z M23.9696,23.8153 L23.9696,20.8153 C23.9696,20.2623 23.5216,19.8153 22.9696,19.8153 C22.4166,19.8153 21.9696,20.2623 21.9696,20.8153 L21.9696,23.8153 C21.9696,24.3673 22.4166,24.8153 22.9696,24.8153 C23.5216,24.8153 23.9696,24.3673 23.9696,23.8153 L23.9696,23.8153 Z M28.9696,29.8153 L23.9696,29.8153 C23.4166,29.8153 22.9696,30.2623 22.9696,30.8153 C22.9696,31.3673 23.4166,31.8153 23.9696,31.8153 L28.9696,31.8153 C29.5216,31.8153 29.9696,31.3673 29.9696,30.8153 C29.9696,30.2623 29.5216,29.8153 28.9696,29.8153 L28.9696,29.8153 Z M44.0076,47.9893 C40.9206,47.9893 40.0646,43.1483 36.6096,43.1483 C33.1556,43.1483 34.3196,49.9893 31.0076,49.9893 C27.6966,49.9893 29.7826,39.9893 26.0076,39.9893 C22.7976,39.9893 22.7136,46.0573 21.4806,46.0573 C21.3026,46.0573 21.1766,46.0033 21.0446,45.8723 C19.9586,44.7913 20.4386,44.0743 20.0076,41.9893 L17.9906,24.7493 C17.9906,17.6303 23.8126,11.8403 30.9696,11.8403 C38.1266,11.8403 43.9486,17.6303 43.9486,24.7493 L44.9496,37.3413 C44.9516,39.3153 45.0076,41.1543 45.0076,43.9893 C45.0076,46.4733 44.6576,47.9893 44.0076,47.9893 L44.0076,47.9893 Z M46.9836,37.3393 L45.9826,24.7493 C45.9826,16.5203 39.2476,9.8253 30.9696,9.8253 C22.6916,9.8253 15.9566,16.5203 15.9566,24.7493 L18.0076,42.9893 C18.5326,45.1493 17.9216,45.6213 19.6026,47.2933 C20.1146,47.8023 20.2046,48.0163 20.9216,48.0163 C24.6876,48.0163 23.9276,41.9893 26.0076,41.9893 C27.9746,41.9893 26.0796,51.9893 31.0076,51.9893 C35.9366,51.9893 34.3546,45.1623 36.5996,45.1623 C38.8456,45.1623 40.4216,49.9893 44.0076,49.9893 C46.5386,49.9893 47.0076,45.1993 47.0076,43.9893 C47.0076,41.0193 46.9856,39.3733 46.9836,37.3393 L46.9836,37.3393 Z" id="Fill-4" fill="#D6DADD"></path>
                    <path d="M38.0002,98.091 C38.0002,98.644 37.5522,99.091 37.0002,99.091 L7.0002,94.091 L7.0002,64.091 L37.0002,69.091 C37.5522,69.091 38.0002,69.538 38.0002,70.091 L38.0002,98.091 Z" id="Fill-6" fill="#F4F6F7"></path>
                    <polygon id="Fill-8" fill="#F4F6F7" points="2.6182 54.091 33.3822 59.091 37.3822 67.091 6.6182 62.091"></polygon>
                    <path d="M58.0001,93.091 L41.0001,99.091 C40.4481,99.091 40.0001,98.644 40.0001,98.091 L40.0001,70.091 C40.0001,69.538 40.4481,69.091 41.0001,69.091 L58.0001,65.091 L58.0001,93.091 Z" id="Fill-10" fill="#F4F6F7"></path>
                </g>
            </g>
        </g>
    </g>
</svg>